<?xml version="1.0" encoding="utf-8"?>
<svg xmlns="http://www.w3.org/2000/svg" xmlns:svg="http://www.w3.org/2000/svg" version="1.1" viewBox="0 0 1400 640">
	<title>The titlepage for the Standard Ebooks edition of Narrative of the Life of Frederick Douglass, an American Slave, by Frederick Douglass</title>
	<g aria-label="NARRATIVE OF">
		<path d="m 336.6038,82.093566 h 0.18713 L 367.48099,130 h 17.59064 V 52.807016 h -17.59064 v 47.906434 h -0.18714 L 336.6038,52.807016 H 319.01315 V 130 h 17.59065 z"/>
		<path d="M 440.52047,52.807016 H 424.23976 L 393.08187,130 h 18.90058 l 5.70761,-15.4386 h 29.38011 L 452.77778,130 h 18.90058 z m 0.5614,46.31579 h -17.40351 l 8.60819,-22.45614 h 0.18713 z"/>
		<path d="M 479.59796,52.807016 V 130 H 497.1886 V 99.497075 L 520.76755,130 h 22.36257 l -26.5731,-31.906433 c 9.4503,-2.994152 15.81287,-10.760234 15.81287,-22.362574 0,-15.157895 -10.8538,-22.923977 -25.16959,-22.923977 z M 497.1886,87.052631 V 66.842104 h 2.05848 c 6.64328,0 14.59649,0.467836 14.59649,10.105263 0,9.637428 -7.95321,10.105264 -14.59649,10.105264 z"/>
		<path d="M 551.66667,52.807016 V 130 h 17.59064 V 99.497075 L 592.83626,130 h 22.36258 l -26.5731,-31.906433 c 9.45029,-2.994152 15.81286,-10.760234 15.81286,-22.362574 0,-15.157895 -10.8538,-22.923977 -25.16959,-22.923977 z m 17.59064,34.245615 V 66.842104 h 2.05848 c 6.64328,0 14.59649,0.467836 14.59649,10.105263 0,9.637428 -7.95321,10.105264 -14.59649,10.105264 z"/>
		<path d="m 662.94006,52.807016 h -16.2807 L 615.50146,130 h 18.90059 l 5.7076,-15.4386 h 29.38012 L 675.19737,130 h 18.90059 z m 0.5614,46.31579 h -17.40351 l 8.60819,-22.45614 h 0.18714 z"/>
		<path d="m 692.58335,68.245613 h 18.33919 V 130 h 17.59064 V 68.245613 h 18.33918 V 52.807016 h -54.26901 z"/>
		<path d="M 775.77781,52.807016 H 758.18716 V 130 h 17.59065 z"/>
		<path d="m 808.16083,130 h 13.84795 L 854.38305,52.807016 H 834.54679 L 815.0848,103.52047 795.62282,52.807016 h -19.83626 z"/>
		<path d="M 906.46638,52.807016 H 862.30264 V 130 h 44.16374 v -15.4386 h -26.5731 V 99.029239 h 25.4503 V 83.590642 h -25.4503 V 68.245613 h 26.5731 z"/>
		<path d="m 948.7018,91.356724 c 0,22.549706 16.09357,40.046786 38.92398,40.046786 22.17542,0 38.83042,-17.49708 38.83042,-40.046786 0,-22.549708 -17.4035,-39.953217 -38.83042,-39.953217 -21.23977,0 -38.92398,17.403509 -38.92398,39.953217 z m 18.99415,0 c 0,-11.508772 6.36257,-23.017544 19.92983,-23.017544 13.66082,0 19.83622,11.508772 19.83622,23.017544 0,11.508776 -5.8011,23.017546 -19.83622,23.017546 -14.40936,0 -19.92983,-11.50877 -19.92983,-23.017546 z"/>
		<path d="m 1083.8494,52.807016 h -44.6315 V 130 h 17.5906 V 99.029239 h 24.9825 V 83.590642 h -24.9825 V 68.245613 h 27.0409 z"/>
	</g>
	<g aria-label="THE LIFE OF FREDERICK">
		<path d="M 92.268996,168.24561 H 110.60818 V 230 h 17.59064 V 168.24561 H 146.538 V 152.80702 H 92.268996 Z"/>
		<path d="m 175.46344,199.02924 h 24.88889 V 230 h 17.59064 v -77.19298 h -17.59064 v 30.78362 H 175.46344 V 152.80702 H 157.8728 V 230 h 17.59064 z"/>
		<path d="M 278.30848,152.80702 H 234.14473 V 230 h 44.16375 v -15.4386 h -26.5731 v -15.53216 h 25.45029 v -15.4386 h -25.45029 v -15.34503 h 26.5731 z"/>
		<path d="M 341.59649,152.80702 H 324.00585 V 230 h 44.16374 v -15.4386 h -26.5731 z"/>
		<path d="M 399.41081,152.80702 H 381.82016 V 230 h 17.59065 z"/>
		<path d="M 460.32601,152.80702 H 415.69443 V 230 h 17.59064 v -30.97076 h 24.98246 v -15.4386 h -24.98246 v -15.34503 h 27.04094 z"/>
		<path d="M 517.85527,152.80702 H 473.69153 V 230 h 44.16374 v -15.4386 h -26.5731 v -15.53216 h 25.4503 v -15.4386 h -25.4503 v -15.34503 h 26.5731 z"/>
		<path d="m 560.09066,191.35672 c 0,22.54971 16.09356,40.04679 38.92397,40.04679 22.17544,0 38.83041,-17.49708 38.83041,-40.04679 0,-22.5497 -17.40351,-39.95321 -38.83041,-39.95321 -21.23976,0 -38.92397,17.40351 -38.92397,39.95321 z m 18.99415,0 c 0,-11.50877 6.36257,-23.01754 19.92982,-23.01754 13.66082,0 19.83626,11.50877 19.83626,23.01754 0,11.50878 -5.80117,23.01755 -19.83626,23.01755 -14.40935,0 -19.92982,-11.50877 -19.92982,-23.01755 z"/>
		<path d="M 695.2383,152.80702 H 650.60672 V 230 h 17.59065 v -30.97076 h 24.98245 v -15.4386 h -24.98245 v -15.34503 h 27.04093 z"/>
		<path d="M 783.82015,152.80702 H 739.18857 V 230 h 17.59064 v -30.97076 h 24.98246 v -15.4386 h -24.98246 v -15.34503 h 27.04094 z"/>
		<path d="M 797.1857,152.80702 V 230 h 17.59065 V 199.49708 L 838.35529,230 h 22.36258 l -26.5731,-31.90643 c 9.45029,-2.99416 15.81286,-10.76024 15.81286,-22.36258 0,-15.15789 -10.8538,-22.92397 -25.16959,-22.92397 z m 17.59065,34.24561 V 166.8421 h 2.05847 c 6.64328,0 14.5965,0.46784 14.5965,10.10527 0,9.63742 -7.95322,10.10526 -14.5965,10.10526 z"/>
		<path d="M 913.41811,152.80702 H 869.25437 V 230 h 44.16374 v -15.4386 h -26.5731 v -15.53216 h 25.45029 v -15.4386 h -25.45029 v -15.34503 h 26.5731 z"/>
		<path d="M 928.53073,152.80702 V 230 h 22.36258 c 21.23976,0 38.92397,-16.09357 38.92397,-38.64328 0,-22.45614 -17.77777,-38.5497 -38.92397,-38.5497 z m 17.59065,61.47368 v -45.75439 h 2.71345 c 13.09941,0 21.9883,10.0117 21.9883,22.92398 -0.0936,12.91228 -8.98245,22.83041 -21.9883,22.83041 z"/>
		<path d="m 1046.7734,152.80702 h -44.1637 V 230 h 44.1637 v -15.4386 h -26.5731 v -15.53216 h 25.4503 v -15.4386 h -25.4503 v -15.34503 h 26.5731 z"/>
		<path d="M 1061.886,152.80702 V 230 h 17.5906 V 199.49708 L 1103.0555,230 h 22.3626 l -26.5731,-31.90643 c 9.4503,-2.99416 15.8129,-10.76024 15.8129,-22.36258 0,-15.15789 -10.8538,-22.92397 -25.1696,-22.92397 z m 17.5906,34.24561 V 166.8421 h 2.0585 c 6.6433,0 14.5965,0.46784 14.5965,10.10527 0,9.63742 -7.9532,10.10526 -14.5965,10.10526 z"/>
		<path d="m 1151.5453,152.80702 h -17.5906 V 230 h 17.5906 z"/>
		<path d="m 1205.981,214.09357 c -17.6842,0 -25.4503,-12.35088 -25.4503,-22.73685 0,-10.29239 7.7661,-22.64327 25.4503,-22.64327 8.9825,0 15.1579,4.77193 15.1579,4.77193 l 7.4854,-14.97076 c 0,0 -8.6082,-7.11111 -25.3567,-7.11111 -21.8948,0 -41.8246,17.96491 -41.8246,40.14035 0,22.08187 20.0234,39.85965 41.8246,39.85965 16.7485,0 25.3567,-7.11111 25.3567,-7.11111 l -7.4854,-14.97076 c 0,0 -6.1754,4.77193 -15.1579,4.77193 z"/>
		<path d="m 1310.7149,230 -35.9298,-40.60819 31.0643,-36.58479 h -21.3333 l -26.4796,31.53216 v -31.53216 h -17.5906 V 230 h 17.5906 V 197.25146 L 1286.481,230 Z"/>
	</g>
	<g aria-label="DOUGLASS,">
		<path d="M 395.31798,252.80702 V 330 h 22.36257 c 21.23977,0 38.92398,-16.09357 38.92398,-38.64328 0,-22.45614 -17.77778,-38.5497 -38.92398,-38.5497 z m 17.59064,61.47368 v -45.75439 h 2.71345 c 13.09942,0 21.98831,10.0117 21.98831,22.92398 -0.0936,12.91228 -8.98246,22.83041 -21.98831,22.83041 z"/>
		<path d="m 465.93494,291.35672 c 0,22.54971 16.09357,40.04679 38.92398,40.04679 22.17543,0 38.83041,-17.49708 38.83041,-40.04679 0,-22.5497 -17.40351,-39.95321 -38.83041,-39.95321 -21.23977,0 -38.92398,17.40351 -38.92398,39.95321 z m 18.99415,0 c 0,-11.50877 6.36257,-23.01754 19.92983,-23.01754 13.66081,0 19.83625,11.50877 19.83625,23.01754 0,11.50878 -5.80117,23.01755 -19.83625,23.01755 -14.40936,0 -19.92983,-11.50877 -19.92983,-23.01755 z"/>
		<path d="m 615.77266,252.80702 h -17.59065 v 44.63158 c 0,12.91228 -3.92982,16.65497 -12.53801,16.65497 -8.60819,0 -12.53801,-3.74269 -12.53801,-16.65497 v -44.63158 h -17.59064 v 49.77777 c 0,19.08772 10.47953,28.81872 30.12865,28.81872 19.64912,0 30.12866,-9.731 30.12866,-28.81872 z"/>
		<path d="m 700.87939,286.77193 h -35.64913 v 13.56725 h 17.77778 c 0,9.45029 -8.32748,14.87719 -16.74854,14.87719 -10.8538,0 -19.64912,-10.66666 -19.64912,-23.76608 0,-13.38012 8.79532,-24.14035 19.64912,-24.14035 6.83041,0 12.72515,2.71345 17.21638,9.91813 l 11.50877,-12.63158 c -6.73684,-8.14035 -16.18713,-13.19298 -29.75439,-13.19298 -21.7076,0 -37.61403,17.87134 -37.61403,40.04678 0,22.08187 16.8421,39.95322 37.61403,39.95322 15.1579,0 31.4386,-8.32749 35.64913,-27.88304 z"/>
		<path d="M 731.15423,252.80702 H 713.56358 V 330 h 44.16375 v -15.4386 h -26.5731 z"/>
		<path d="M 812.0446,252.80702 H 795.7639 L 764.606,330 h 18.90059 l 5.7076,-15.4386 h 29.38012 L 824.30191,330 h 18.90058 z m 0.5614,46.31579 h -17.40351 l 8.60819,-22.45614 h 0.18713 z"/>
		<path d="m 877.73905,251.40351 c -12.44445,0 -25.1696,9.16959 -25.1696,23.57895 0,8.04678 5.42691,15.25146 14.69006,19.83625 9.16959,4.5848 17.40351,7.11111 17.40351,12.72515 0,7.20468 -7.29824,7.57895 -11.1345,7.57895 -8.60819,0 -18.90059,-8.70176 -18.90059,-8.70176 l -8.79532,14.78363 c 0,0 10.94737,10.19883 29.00585,10.19883 15.06433,0 29.09942,-6.45614 29.09942,-24.88889 0,-10.10526 -9.4503,-17.40351 -18.05848,-21.05263 -8.79532,-3.74269 -16.09357,-6.83041 -16.09357,-11.13451 0,-4.21052 3.18129,-6.92397 9.16959,-6.92397 7.95322,0 15.62573,5.33333 15.62573,5.33333 l 7.11111,-14.03509 c 0,0 -9.91813,-7.29824 -23.95321,-7.29824 z"/>
		<path d="m 943.77707,251.40351 c -12.44444,0 -25.16959,9.16959 -25.16959,23.57895 0,8.04678 5.4269,15.25146 14.69006,19.83625 9.16959,4.5848 17.40351,7.11111 17.40351,12.72515 0,7.20468 -7.29825,7.57895 -11.13451,7.57895 -8.60818,0 -18.90058,-8.70176 -18.90058,-8.70176 l -8.79532,14.78363 c 0,0 10.94737,10.19883 29.00585,10.19883 15.06432,0 29.09941,-6.45614 29.09941,-24.88889 0,-10.10526 -9.45029,-17.40351 -18.05848,-21.05263 -8.79532,-3.74269 -16.09357,-6.83041 -16.09357,-11.13451 0,-4.21052 3.18129,-6.92397 9.1696,-6.92397 7.95321,0 15.62573,5.33333 15.62573,5.33333 l 7.11111,-14.03509 c 0,0 -9.91813,-7.29824 -23.95322,-7.29824 z"/>
		<path d="m 993.86477,309.97661 c -5.89474,0 -10.66667,4.77193 -10.66667,10.76023 0,4.95907 3.46199,8.70176 8.04679,9.82456 -1.49708,7.76609 -7.11111,13.09942 -7.11111,13.09942 l 4.77193,3.92982 c 7.67251,-6.36257 15.71929,-15.53216 15.71929,-26.8538 0,-5.9883 -4.77192,-10.76023 -10.76023,-10.76023 z"/>
	</g>
	<g aria-label="AN AMERICAN SLAVE">
		<path d="m 184.80774,352.80702 h -16.2807 L 137.36914,430 h 18.90059 l 5.7076,-15.4386 h 29.38012 L 197.06505,430 h 18.90059 z m 0.5614,46.31579 h -17.40351 l 8.60819,-22.45614 h 0.18714 z"/>
		<path d="M 241.47587,382.09357 H 241.663 L 272.35306,430 h 17.59065 v -77.19298 h -17.59065 v 47.90643 h -0.18713 L 241.47587,352.80702 H 223.88523 V 430 h 17.59064 z"/>
		<path d="m 375.97734,352.80702 h -16.2807 L 328.53874,430 h 18.90059 l 5.7076,-15.4386 h 29.38012 L 388.23465,430 h 18.90059 z m 0.56141,46.31579 h -17.40351 l 8.60818,-22.45614 h 0.18714 z"/>
		<path d="m 478.86768,430 h 17.59064 l -6.92397,-77.19298 H 470.8209 l -17.12281,44.53801 -17.12281,-44.53801 H 417.86183 L 410.93785,430 h 17.59065 l 3.64912,-45.75439 h 0.46784 l 15.81286,45.28655 h 10.47953 l 15.81287,-45.28655 h 0.46784 z"/>
		<path d="M 552.66887,352.80702 H 508.50513 V 430 h 44.16374 v -15.4386 h -26.5731 v -15.53216 h 25.4503 v -15.4386 h -25.4503 v -15.34503 h 26.5731 z"/>
		<path d="M 567.78144,352.80702 V 430 h 17.59064 V 399.49708 L 608.95103,430 h 22.36257 l -26.5731,-31.90643 c 9.45029,-2.99416 15.81287,-10.76024 15.81287,-22.36258 0,-15.15789 -10.8538,-22.92397 -25.16959,-22.92397 z m 17.59064,34.24561 V 366.8421 h 2.05848 c 6.64327,0 14.59649,0.46784 14.59649,10.10527 0,9.63742 -7.95322,10.10526 -14.59649,10.10526 z"/>
		<path d="M 657.44081,352.80702 H 639.85016 V 430 h 17.59065 z"/>
		<path d="m 711.87647,414.09357 c -17.68421,0 -25.45029,-12.35088 -25.45029,-22.73685 0,-10.29239 7.76608,-22.64327 25.45029,-22.64327 8.98246,0 15.1579,4.77193 15.1579,4.77193 l 7.48538,-14.97076 c 0,0 -8.60819,-7.11111 -25.35673,-7.11111 -21.89473,0 -41.82456,17.96491 -41.82456,40.14035 0,22.08187 20.02339,39.85965 41.82456,39.85965 16.74854,0 25.35673,-7.11111 25.35673,-7.11111 l -7.48538,-14.97076 c 0,0 -6.17544,4.77193 -15.1579,4.77193 z"/>
		<path d="m 785.54608,352.80702 h -16.2807 L 738.10749,430 h 18.90058 l 5.7076,-15.4386 h 29.38012 L 797.80339,430 h 18.90059 z m 0.56141,46.31579 h -17.40351 l 8.60818,-22.45614 h 0.18714 z"/>
		<path d="m 842.21421,382.09357 h 0.18714 L 873.09141,430 h 17.59064 v -77.19298 h -17.59064 v 47.90643 h -0.18714 L 842.21421,352.80702 H 824.62357 V 430 h 17.59064 z"/>
		<path d="m 964.12795,351.40351 c -12.44444,0 -25.16959,9.16959 -25.16959,23.57895 0,8.04678 5.4269,15.25146 14.69006,19.83625 9.16959,4.5848 17.40351,7.11111 17.40351,12.72515 0,7.20468 -7.29825,7.57895 -11.13451,7.57895 -8.60818,0 -18.90058,-8.70176 -18.90058,-8.70176 l -8.79532,14.78363 c 0,0 10.94737,10.19883 29.00585,10.19883 15.06432,0 29.09941,-6.45614 29.09941,-24.88889 0,-10.10526 -9.45029,-17.40351 -18.05848,-21.05263 -8.79532,-3.74269 -16.09357,-6.83041 -16.09357,-11.13451 0,-4.21052 3.18129,-6.92397 9.16959,-6.92397 7.95322,0 15.62574,5.33333 15.62574,5.33333 l 7.11111,-14.03509 c 0,0 -9.91813,-7.29824 -23.95322,-7.29824 z"/>
		<path d="M 1021.1396,352.80702 H 1003.549 V 430 h 44.1637 v -15.4386 h -26.5731 z"/>
		<path d="m 1102.03,352.80702 h -16.2807 L 1054.5914,430 h 18.9006 l 5.7076,-15.4386 h 29.3801 L 1114.2873,430 h 18.9006 z m 0.5614,46.31579 h -17.4035 l 8.6082,-22.45614 h 0.1871 z"/>
		<path d="m 1157.2069,430 h 13.848 l 32.3742,-77.19298 h -19.8362 l -19.462,50.71345 -19.462,-50.71345 h -19.8363 z"/>
		<path d="m 1255.5124,352.80702 h -44.1637 V 430 h 44.1637 v -15.4386 h -26.5731 v -15.53216 h 25.4503 v -15.4386 h -25.4503 v -15.34503 h 26.5731 z"/>
	</g>
	<g aria-label="FREDERICK DOUGLASS">
		<path d="M 279.54551,532.10526 H 246.07182 V 590 h 13.19299 v -23.22807 h 18.73684 v -11.57895 h -18.73684 v -11.50877 h 20.2807 z"/>
		<path d="M 290.81963,532.10526 V 590 h 13.19298 V 567.12281 L 321.69682,590 h 16.77193 l -19.92982,-23.92982 c 7.08772,-2.24562 11.85965,-8.07018 11.85965,-16.77193 0,-11.36842 -8.14035,-17.19299 -18.8772,-17.19299 z m 13.19298,25.68421 v -15.15789 h 1.54386 c 4.98246,0 10.94737,0.35088 10.94737,7.57895 0,7.22807 -5.96491,7.57894 -10.94737,7.57894 z"/>
		<path d="M 379.24397,532.10526 H 346.12116 V 590 h 33.12281 v -11.57895 h -19.92982 v -11.64912 h 19.08771 v -11.57895 h -19.08771 v -11.50877 h 19.92982 z"/>
		<path d="M 391.8284,532.10526 V 590 h 16.77193 c 15.92982,0 29.19298,-12.07018 29.19298,-28.98246 0,-16.8421 -13.33333,-28.91228 -29.19298,-28.91228 z m 13.19298,46.10527 v -34.31579 h 2.03509 c 9.82456,0 16.49123,7.50877 16.49123,17.19298 -0.0702,9.68421 -6.73684,17.12281 -16.49123,17.12281 z"/>
		<path d="M 481.76043,532.10526 H 448.63762 V 590 h 33.12281 V 578.42105 H 461.8306 v -11.64912 h 19.08772 V 555.19298 H 461.8306 v -11.50877 h 19.92983 z"/>
		<path d="M 494.34485,532.10526 V 590 h 13.19298 V 567.12281 L 525.22204,590 h 16.77193 l -19.92982,-23.92982 c 7.08772,-2.24562 11.85965,-8.07018 11.85965,-16.77193 0,-11.36842 -8.14035,-17.19299 -18.8772,-17.19299 z m 13.19298,25.68421 v -15.15789 h 1.54386 c 4.98246,0 10.94737,0.35088 10.94737,7.57895 0,7.22807 -5.96491,7.57894 -10.94737,7.57894 z"/>
		<path d="M 562.83936,532.10526 H 549.64638 V 590 h 13.19298 z"/>
		<path d="m 604.91613,578.07018 c -13.26315,0 -19.08772,-9.26316 -19.08772,-17.05264 0,-7.71929 5.82457,-16.98245 19.08772,-16.98245 6.73685,0 11.36842,3.57895 11.36842,3.57895 l 5.61404,-11.22807 c 0,0 -6.45614,-5.33334 -19.01754,-5.33334 -16.42106,0 -31.36842,13.47369 -31.36842,30.10527 0,16.5614 15.01754,29.89473 31.36842,29.89473 12.5614,0 19.01754,-5.33333 19.01754,-5.33333 l -5.61404,-11.22807 c 0,0 -4.63157,3.57895 -11.36842,3.57895 z"/>
		<path d="m 684.71657,590 -26.94737,-30.45614 23.29825,-27.4386 h -16 L 645.2078,555.75439 V 532.10526 H 632.01482 V 590 H 645.2078 V 565.4386 L 666.54113,590 Z"/>
		<path d="M 716.43913,532.10526 V 590 h 16.77193 c 15.92983,0 29.19299,-12.07018 29.19299,-28.98246 0,-16.8421 -13.33334,-28.91228 -29.19299,-28.91228 z m 13.19299,46.10527 v -34.31579 h 2.03508 c 9.82457,0 16.49123,7.50877 16.49123,17.19298 -0.0702,9.68421 -6.73684,17.12281 -16.49123,17.12281 z"/>
		<path d="m 770.65185,561.01754 c 0,16.91228 12.07017,30.03509 29.19298,30.03509 16.63158,0 29.12281,-13.12281 29.12281,-30.03509 0,-16.91228 -13.05264,-29.96491 -29.12281,-29.96491 -15.92983,0 -29.19298,13.05263 -29.19298,29.96491 z m 14.24561,0 c 0,-8.63157 4.77193,-17.26315 14.94737,-17.26315 10.24561,0 14.87719,8.63158 14.87719,17.26315 0,8.63158 -4.35088,17.26316 -14.87719,17.26316 -10.80702,0 -14.94737,-8.63158 -14.94737,-17.26316 z"/>
		<path d="m 884.28015,532.10526 h -13.19298 v 33.47369 c 0,9.68421 -2.94737,12.49123 -9.40351,12.49123 -6.45614,0 -9.40351,-2.80702 -9.40351,-12.49123 v -33.47369 h -13.19298 v 37.33334 c 0,14.31579 7.85965,21.61403 22.59649,21.61403 14.73684,0 22.59649,-7.29824 22.59649,-21.61403 z"/>
		<path d="m 949.3602,557.57895 h -26.73684 v 10.17544 h 13.33333 c 0,7.08772 -6.24561,11.15789 -12.5614,11.15789 -8.14035,0 -14.73684,-8 -14.73684,-17.82456 0,-10.03509 6.59649,-18.10526 14.73684,-18.10526 5.12281,0 9.54386,2.03508 12.91228,7.43859 l 8.63158,-9.47368 c -5.05263,-6.10526 -12.14035,-9.89474 -22.31579,-9.89474 -16.2807,0 -28.21053,13.40351 -28.21053,30.03509 0,16.5614 12.63158,29.96491 28.21053,29.96491 11.36842,0 23.57895,-6.24561 26.73684,-20.91228 z"/>
		<path d="M 973.31632,532.10526 H 960.12334 V 590 h 33.1228 v -11.57895 h -19.92982 z"/>
		<path d="m 1035.2341,532.10526 h -12.2105 L 999.65517,590 h 14.17543 l 4.2807,-11.57895 h 22.0351 L 1044.4271,590 h 14.1754 z m 0.4211,34.73685 h -13.0527 L 1029.0587,550 h 0.1403 z"/>
		<path d="m 1085.7549,531.05263 c -9.3333,0 -18.8771,6.8772 -18.8771,17.68421 0,6.03509 4.0701,11.4386 11.0175,14.8772 6.8772,3.43859 13.0526,5.33333 13.0526,9.54385 0,5.40351 -5.4737,5.68422 -8.3508,5.68422 -6.4562,0 -14.1755,-6.52632 -14.1755,-6.52632 l -6.5965,11.08772 c 0,0 8.2106,7.64912 21.7544,7.64912 11.2983,0 21.8246,-4.8421 21.8246,-18.66666 0,-7.57895 -7.0877,-13.05264 -13.5439,-15.78948 -6.5965,-2.80702 -12.0702,-5.12281 -12.0702,-8.35088 0,-3.15789 2.386,-5.19298 6.8772,-5.19298 5.9649,0 11.7193,4 11.7193,4 l 5.3334,-10.52631 c 0,0 -7.4386,-5.47369 -17.965,-5.47369 z"/>
		<path d="m 1136.5335,531.05263 c -9.3334,0 -18.8772,6.8772 -18.8772,17.68421 0,6.03509 4.0701,11.4386 11.0175,14.8772 6.8772,3.43859 13.0526,5.33333 13.0526,9.54385 0,5.40351 -5.4736,5.68422 -8.3508,5.68422 -6.4562,0 -14.1755,-6.52632 -14.1755,-6.52632 l -6.5965,11.08772 c 0,0 8.2106,7.64912 21.7544,7.64912 11.2983,0 21.8246,-4.8421 21.8246,-18.66666 0,-7.57895 -7.0877,-13.05264 -13.5439,-15.78948 -6.5965,-2.80702 -12.0702,-5.12281 -12.0702,-8.35088 0,-3.15789 2.386,-5.19298 6.8772,-5.19298 5.9649,0 11.7193,4 11.7193,4 l 5.3334,-10.52631 c 0,0 -7.4386,-5.47369 -17.9649,-5.47369 z"/>
	</g>
</svg>
